<svg width="191" height="56" viewBox="0 0 191 56" fill="none" xmlns="http://www.w3.org/2000/svg">
<path fill-rule="evenodd" clip-rule="evenodd" d="M186.892 39.7691C185.766 42.6856 183.972 44.8436 180.955 43.8821C178.755 43.1806 179.203 39.7229 180.596 36.3826C182.198 32.5403 184.477 31.8887 186.322 32.7291C188.305 33.63 187.981 36.9417 186.892 39.7691ZM187.497 29.6168C191.307 30.8061 191.535 35.1968 190.406 39.3774C189.235 43.7147 186.706 47.5784 181.183 47.4181C178.456 47.3362 176.753 45.2709 175.931 42.6429C173.898 44.5373 168.282 51.4456 162.146 45.481C161.384 44.7403 160.95 43.1734 160.95 43.1734C160.95 43.1734 156.381 47.6781 152.934 47.2757C150.448 46.9873 150.591 43.4833 150.591 43.4833C150.591 43.4833 149.22 45.5629 146.474 46.7024C143.444 47.9559 141.079 45.7017 141.4 43.7468C141.781 41.4214 144.954 33.4092 144.954 33.4092C144.954 33.4092 142.347 33.2525 141.713 34.3244C141.079 35.3927 139.534 40.3247 136.735 43.8643C134.655 46.4958 130.945 48.2407 127.989 47.3434C126.198 46.7985 125.682 44.288 125.682 44.288C125.682 44.288 122.694 47.6603 118.93 47.411C116.263 47.2365 115.633 44.8792 116.117 42.9313C116.252 42.3829 120.34 30.6993 120.34 30.6993L124.606 30.6423C124.606 30.6423 122.826 35.5209 122.317 37.1803C121.872 38.6296 120.355 42.1835 121.184 42.9135C122.94 44.459 125.575 41.7312 126.69 39.9543C127.712 38.3234 130.336 30.5604 130.336 30.5604L133.925 30.5106C133.925 30.5106 131.151 38.562 130.728 40.0006C130.015 42.4185 131.597 44.167 133.904 42.6179C136.393 40.9478 137.629 37.5257 139.897 32.0489C139.897 32.0489 138.533 31.4044 138.302 30.2399C138.038 28.8974 139.655 25.7851 141.717 26.597C143.618 27.3449 143.326 28.5983 143.02 29.047C142.753 29.4316 141.29 29.9408 141.745 30.329C142.312 30.8097 148.248 29.4316 148.647 31.6323C148.889 32.9641 147.333 36.1405 146.773 38.0812C146.043 40.6202 144.722 42.8387 146.524 43.3729C147.461 43.6506 150.986 42.1479 152.856 37.28C153.361 35.9624 154.739 32.1878 155.43 30.2577L159.009 30.2115C159.009 30.2115 157.182 35.6455 156.662 37.1589C155.786 39.7157 154.554 42.4292 156.659 42.8779C157.72 43.1058 160.302 42.0054 161.185 39.4024C162.606 35.1968 165.034 30.0761 169.372 29.4993C172.309 29.1075 174.168 30.1082 174.994 31.5041C175.08 31.6501 175.158 31.8032 175.222 31.9563C175.343 32.2555 175.415 32.5795 175.432 32.9142C175.514 34.5131 174.282 35.8058 172.687 35.8058C171.088 35.8058 169.731 34.5096 169.649 32.9142C169.639 32.6757 169.631 32.4549 169.699 32.2341C169.699 32.2341 168.335 32.0988 166.455 34.3244C165.02 36.0586 163.311 40.2819 164.97 42.5503C166.377 44.4661 168.666 44.8507 170.81 43.6577C171.821 43.0915 173.908 41.7277 175.001 40.4066C176.422 38.6902 177.06 35.5387 178.491 33.1635C179.926 30.7741 183.028 28.2209 187.497 29.6168ZM160.544 26.9033C160.266 28.1639 158.991 28.8761 157.699 28.4879C156.406 28.1033 155.583 26.768 155.861 25.5074C156.139 24.2432 157.414 23.5346 158.706 23.9192C159.999 24.3038 160.822 25.6391 160.544 26.9033ZM108.824 19.995C110.38 19.2828 113.742 17.7872 114.977 12.9015C116.384 7.34635 111.096 5.79376 109.045 9.18382C106.207 13.8772 108.265 18.7308 108.824 19.995ZM115.301 34.6769C116.459 38.2628 115.066 43.1877 111.708 45.7659C106.563 49.7185 97.582 47.963 95.1036 43.0203C93.0311 38.8896 93.5617 35.1683 94.9932 32.0952C96.4532 28.9687 100.655 25.397 107.578 24.5281C107.214 24.1756 106.873 23.7874 106.556 23.3637C103.084 24.667 96.1291 25.9418 91.4251 22.6444C86.9062 19.4751 85.3322 12.0718 90.2321 6.02522H90.8517C88.6867 9.59689 88.9288 14.7496 91.6708 18.4281C94.1492 21.7541 100.128 22.8224 105.334 21.3232C104.586 19.7421 104.109 17.8976 104.01 15.9319C103.732 10.4088 106.356 5.98249 110.419 5.3237C112.1 5.0317 113.752 5.40561 114.831 6.11068C116.979 7.50659 118.603 11.4735 115.999 16.4554C114.522 19.2828 111.911 20.8461 110.006 21.7256C111.409 23.4278 113.094 24.7453 115.604 24.9626L115.351 25.7353C112.321 25.6213 107.467 25.7887 103.689 28.5876C99.245 31.8816 98.3797 35.6918 99.7791 39.4024C101.684 44.4518 108.753 44.8649 111.655 40.8552C112.773 39.3133 113.111 36.7886 112.381 34.6805C111.691 32.6899 109.786 31.3866 107.592 31.3866C105.395 31.3866 103.586 32.7504 102.927 34.6805H102.186C102.785 31.9599 105.388 29.9052 108.34 29.9052C111.933 29.9016 114.44 31.9848 115.301 34.6769Z" fill="white"/>
<path fill-rule="evenodd" clip-rule="evenodd" d="M17.0714 40.4777C16.7331 39.7477 15.8642 39.2207 15.0665 39.2207C13.927 39.2207 12.9264 40.0184 12.9264 41.2077C12.9264 42.5324 14.1514 42.9918 15.2197 43.3835C16.0031 43.6541 16.7509 43.9604 16.7509 44.929C16.7509 45.9154 15.9675 46.6952 14.9846 46.6952C13.9484 46.6952 13.3181 46.0329 13.0297 45.0963L12.2818 45.3349C12.6059 46.6098 13.6742 47.4074 14.9846 47.4074C16.3948 47.4074 17.5165 46.4032 17.5165 44.961C17.5165 42.1229 13.692 43.0417 13.692 41.1543C13.692 40.4742 14.3721 39.9293 15.0345 39.9293C15.647 39.9293 16.1562 40.2676 16.4126 40.8125L17.0714 40.4777ZM22.014 39.9329C23.9192 39.9329 25.1584 41.3609 25.1584 43.1805C25.1584 45.0679 24.0723 46.6988 22.0639 46.6988C20.1588 46.6988 18.9694 45.0679 18.9694 43.266C18.9729 41.5638 20.2122 39.9329 22.014 39.9329ZM25.8741 39.3881H25.1085V40.7484C24.4106 39.762 23.2568 39.2207 22.0496 39.2207C19.6887 39.2207 18.2073 40.9727 18.2073 43.266C18.2073 45.5593 19.7029 47.411 22.0817 47.411C23.239 47.411 24.496 46.8341 25.0729 45.8299L25.1085 47.2401H25.8741V39.3881ZM31.7854 39.9329C33.7048 39.9329 34.8799 41.5995 34.8799 43.4013C34.8799 45.1533 33.6549 46.6988 31.821 46.6988C29.9337 46.6988 28.6944 45.3207 28.6944 43.4868C28.6909 41.5995 29.7805 39.9329 31.7854 39.9329ZM28.7407 39.3881H27.9751V51.8302H28.7407V45.8833C29.4209 46.8875 30.5925 47.411 31.7996 47.411C34.1606 47.411 35.6419 45.6768 35.6419 43.3835C35.6419 41.0902 34.1641 39.2207 31.7676 39.2207C30.6103 39.2207 29.3532 39.7976 28.7763 40.8018L28.7407 39.3881ZM40.0255 39.9329C41.9306 39.9329 43.1699 41.3609 43.1699 43.1805C43.1699 45.0679 42.0838 46.6988 40.0754 46.6988C38.1702 46.6988 36.9809 45.0679 36.9809 43.266C36.9809 41.5638 38.2236 39.9329 40.0255 39.9329ZM43.8821 39.3881H43.1164V40.7484C42.4185 39.762 41.2647 39.2207 40.0576 39.2207C37.6966 39.2207 36.2152 40.9727 36.2152 43.266C36.2152 45.5593 37.7109 47.411 40.0896 47.411C41.2469 47.411 42.504 46.8341 43.0808 45.8299L43.1164 47.2401H43.8821V39.3881ZM46.8377 40.1038H48.2158V39.3916H46.8377V36.5891H46.0721V39.3916H45.2067V40.1038H46.0721V47.2401H46.8377V40.1038ZM52.3394 39.2172C50.0604 39.2172 48.2621 41.0689 48.2621 43.3301C48.2621 45.5557 50.0817 47.4074 52.3394 47.4074C54.6505 47.4074 56.4702 45.6412 56.4702 43.3123C56.4702 40.987 54.6505 39.2172 52.3394 39.2172ZM52.2896 39.9329C54.2267 39.9329 55.7045 41.3929 55.7045 43.3337C55.7045 45.2388 54.2089 46.6988 52.2896 46.6988C50.4378 46.6988 49.0277 45.1177 49.0277 43.3337C49.0277 41.514 50.42 39.9329 52.2896 39.9329ZM61.7689 40.4777C61.4271 39.7477 60.5617 39.2207 59.7641 39.2207C58.6245 39.2207 57.6239 40.0184 57.6239 41.2077C57.6239 42.5324 58.8489 42.9918 59.9172 43.3835C60.7006 43.6541 61.4484 43.9604 61.4484 44.929C61.4484 45.9154 60.665 46.6952 59.6822 46.6952C58.6459 46.6952 58.0156 46.0329 57.7272 45.0963L56.9794 45.3349C57.3034 46.6098 58.3717 47.4074 59.6822 47.4074C61.0923 47.4074 62.214 46.4032 62.214 44.961C62.214 42.1229 58.3895 43.0417 58.3895 41.1543C58.3895 40.4742 59.0697 39.9293 59.732 39.9293C60.3445 39.9293 60.8537 40.2676 61.1101 40.8125L61.7689 40.4777ZM3.92421 29.9693C5.82934 29.9693 7.06856 31.3972 7.06856 33.2169C7.06856 35.1042 5.98246 36.7351 3.97406 36.7351C2.06893 36.7351 0.879564 35.1042 0.879564 33.3023C0.883125 31.6002 2.12591 29.9693 3.92421 29.9693ZM7.78432 29.4244H7.01871V30.7847C6.2531 29.7983 5.30231 29.2535 4.02748 29.2535C1.7342 29.2535 0.117513 31.0732 0.117513 33.3308C0.117513 35.5244 1.64874 37.4438 3.92421 37.4438C5.11358 37.4438 6.28514 36.8491 6.9831 35.9126L7.01871 36.8811C7.01871 37.9352 6.93324 38.9536 6.32075 39.8546C5.74387 40.6878 4.78953 41.0261 3.8067 41.0261C2.22562 41.0261 0.851076 40.0077 0.765613 38.3768H0C0.117513 40.5347 1.81967 41.7419 3.87436 41.7419C5.11358 41.7419 6.2709 41.2327 7.0009 40.2285C7.74871 39.1922 7.78432 38.1026 7.78432 36.899V29.4244ZM10.6545 29.4244H9.88886V37.2764H10.6545V33.2667C10.6545 32.1094 10.5512 29.9693 12.2676 29.9693C12.4706 29.9693 12.6237 30.0191 12.8124 30.1224L13.2219 29.4422C12.9513 29.3247 12.6949 29.2535 12.3887 29.2535C11.5554 29.2535 10.9963 29.7307 10.6901 30.4429L10.6545 29.4244ZM17.1426 29.9693C19.0477 29.9693 20.287 31.3972 20.287 33.2169C20.287 35.1042 19.2008 36.7351 17.1925 36.7351C15.2873 36.7351 14.098 35.1042 14.098 33.3023C14.1015 31.6002 15.3407 29.9693 17.1426 29.9693ZM20.9991 29.4244H20.2335V30.7847C19.5356 29.7983 18.3818 29.2535 17.1746 29.2535C14.8137 29.2535 13.3323 31.0055 13.3323 33.2988C13.3323 35.5921 14.828 37.4473 17.2067 37.4473C18.364 37.4473 19.621 36.8705 20.1979 35.8663L20.2335 37.2764H20.9991V29.4244ZM23.8693 29.4244H23.1037V37.2764H23.8693V33.4021C23.8693 31.8032 24.1934 29.9693 26.1626 29.9693C27.879 29.9693 28.0499 31.1266 28.0499 32.5367V37.28H28.8155V32.5367C28.8155 30.5141 28.2564 29.2571 26.2338 29.2571C25.2154 29.2571 24.3643 29.7841 23.9049 30.6494L23.8693 29.4244ZM34.011 36.7316C32.1059 36.7316 30.9165 35.1007 30.9165 33.2988C30.9165 31.6002 32.1557 29.9693 33.9576 29.9693C35.8627 29.9693 37.1019 31.3972 37.1019 33.2169C37.1055 35.1006 36.0194 36.7316 34.011 36.7316ZM37.0556 37.2764H37.8213V23.2568H37.0556V30.7847C36.3577 29.7983 35.2039 29.2535 33.9968 29.2535C31.6358 29.2535 30.1544 31.0055 30.1544 33.2988C30.1544 35.5921 31.6501 37.4473 34.0288 37.4473C35.1861 37.4473 36.4432 36.8705 37.02 35.8663L37.0556 37.2764ZM46.738 33.4199C46.7558 31.1586 45.3456 29.2571 42.9633 29.2571C40.67 29.2571 39.1566 31.1444 39.1566 33.3344C39.1566 35.56 40.6344 37.4473 42.9633 37.4473C44.5088 37.4473 45.7694 36.6817 46.4816 35.3214L45.837 34.9475C45.2744 36.0016 44.2916 36.7316 43.0666 36.7316C41.2469 36.7316 39.8724 35.4069 39.9222 33.4163H46.738V33.4199ZM39.9222 32.7041C40.0576 31.2263 41.3822 29.9693 42.9811 29.9693C44.5943 29.9693 45.7836 31.2619 45.9724 32.7041H39.9222ZM52.0403 30.5141C51.702 29.7841 50.8331 29.2571 50.0354 29.2571C48.8959 29.2571 47.8953 30.0547 47.8953 31.2441C47.8953 32.5688 49.1203 33.0282 50.1886 33.4199C50.9684 33.6905 51.7162 33.9967 51.7162 34.9653C51.7162 35.9517 50.9328 36.7316 49.95 36.7316C48.9137 36.7316 48.2834 36.0692 47.995 35.1327L47.2472 35.3713C47.5712 36.6461 48.6395 37.4438 49.95 37.4438C51.3601 37.4438 52.4818 36.4396 52.4818 34.9974C52.4818 32.1593 48.6573 33.078 48.6573 31.1907C48.6573 30.5105 49.3375 29.9657 49.9998 29.9657C50.6123 29.9657 51.1215 30.304 51.3779 30.8488L52.0403 30.5141ZM17.5023 26.9389C15.736 26.9389 14.6321 25.4254 14.6321 23.7518C14.6321 22.1743 15.7823 20.6608 17.456 20.6608C19.2222 20.6608 20.376 21.9855 20.376 23.6734C20.3724 25.4219 19.3647 26.9389 17.5023 26.9389ZM20.3261 27.441H21.0348V14.4256H20.3261V21.4158C19.678 20.5006 18.6062 19.9949 17.4845 19.9949C15.2909 19.9949 13.9199 21.6187 13.9199 23.7518C13.9199 25.8812 15.3087 27.6012 17.5165 27.6012C18.5884 27.6012 19.7564 27.0635 20.2941 26.1341L20.3261 27.441ZM26.0664 19.9949C23.9512 19.9949 22.2775 21.7149 22.2775 23.8123C22.2775 25.8777 23.9655 27.5976 26.0664 27.5976C28.2137 27.5976 29.9016 25.956 29.9016 23.7945C29.9016 21.6366 28.2137 19.9949 26.0664 19.9949ZM26.0201 20.6573C27.8184 20.6573 29.193 22.014 29.193 23.8123C29.193 25.5786 27.8042 26.9353 26.0201 26.9353C24.3002 26.9353 22.9897 25.4682 22.9897 23.8123C22.9897 22.1244 24.2824 20.6573 26.0201 20.6573ZM34.8229 21.1629C34.506 20.4828 33.7012 19.9949 32.9605 19.9949C31.9029 19.9949 30.9735 20.7356 30.9735 21.8395C30.9735 23.0716 32.1094 23.4954 33.1029 23.8586C33.8294 24.1114 34.5238 24.3963 34.5238 25.2937C34.5238 26.2089 33.7973 26.9353 32.8822 26.9353C31.9207 26.9353 31.3367 26.3193 31.0661 25.4504L30.3717 25.6712C30.6708 26.8534 31.6643 27.5976 32.8822 27.5976C34.1926 27.5976 35.2324 26.6682 35.2324 25.3257C35.2324 22.6906 31.6821 23.5417 31.6821 21.7897C31.6821 21.1594 32.3124 20.6537 32.9285 20.6537C33.4982 20.6537 33.9683 20.9706 34.2069 21.4727L34.8229 21.1629ZM12.7163 11.0996C14.6214 11.0996 15.8606 12.5275 15.8606 14.3472C15.8606 16.2345 14.7745 17.8655 12.7661 17.8655C10.861 17.8655 9.67164 16.2345 9.67164 14.4327C9.67521 12.7341 10.918 11.0996 12.7163 11.0996ZM16.5764 10.5583H15.8108V11.9186C15.1128 10.9322 13.9591 10.391 12.7519 10.391C10.391 10.391 8.90959 12.143 8.90959 14.4362C8.90959 16.7295 10.4052 18.5812 12.7839 18.5812C13.9413 18.5812 15.1983 18.0043 15.7752 17.0001L15.8108 18.4103H16.5764V10.5583ZM29.4529 11.356C28.6695 10.6936 27.7365 10.3874 26.7181 10.3874C24.407 10.3874 22.6728 12.1892 22.6728 14.4647C22.6728 16.758 24.3714 18.5777 26.7003 18.5777C27.7543 18.5777 28.755 18.186 29.5562 17.4916V16.4553C28.844 17.3206 27.79 17.8655 26.6682 17.8655C24.8165 17.8655 23.4384 16.2523 23.4384 14.4683C23.4384 12.6842 24.8308 11.1031 26.686 11.1031C27.8078 11.1031 28.7087 11.5625 29.4565 12.378V11.356H29.4529ZM34.0715 11.0996C35.9767 11.0996 37.2159 12.5275 37.2159 14.3472C37.2159 16.2345 36.1298 17.8655 34.1214 17.8655C32.2163 17.8655 31.0269 16.2345 31.0269 14.4327C31.0305 12.7341 32.2697 11.0996 34.0715 11.0996ZM37.9316 10.5583H37.166V11.9186C36.4681 10.9322 35.3143 10.391 34.1071 10.391C31.7462 10.391 30.2648 12.143 30.2648 14.4362C30.2648 16.7295 31.7605 18.5812 34.1392 18.5812C35.2965 18.5812 36.5535 18.0043 37.1304 17.0001L37.166 18.4103H37.9316V10.5583ZM43.996 11.6444C43.6577 10.9144 42.7888 10.3874 41.9912 10.3874C40.8517 10.3874 39.851 11.1851 39.851 12.3744C39.851 13.6991 41.076 14.1585 42.1443 14.5502C42.9242 14.8208 43.672 15.1271 43.672 16.0957C43.672 17.082 42.8885 17.8619 41.9057 17.8619C40.8695 17.8619 40.2392 17.1996 39.9507 16.263L39.2029 16.5016C39.527 17.7764 40.5953 18.5741 41.9057 18.5741C43.3159 18.5741 44.4376 17.5699 44.4376 16.1277C44.4376 13.2896 40.6131 14.2083 40.6131 12.321C40.6131 11.6409 41.2932 11.096 41.9556 11.096C42.5681 11.096 43.0773 11.4343 43.3337 11.9792L43.996 11.6444ZM48.9387 11.0996C50.8438 11.0996 52.083 12.5275 52.083 14.3472C52.083 16.2345 50.9969 17.8655 48.9885 17.8655C47.0834 17.8655 45.894 16.2345 45.894 14.4327C45.894 12.7341 47.1368 11.0996 48.9387 11.0996ZM52.7952 10.5583H52.0296V11.9186C51.3316 10.9322 50.1779 10.391 48.9707 10.391C46.6098 10.391 45.1284 12.143 45.1284 14.4362C45.1284 16.7295 46.624 18.5812 49.0028 18.5812C50.1601 18.5812 51.4171 18.0043 51.994 17.0001L52.0296 18.4103H52.7952V10.5583Z" fill="white"/>
<path d="M76.4516 0H75.8213V55.5265H76.4516V0Z" fill="white"/>
</svg>
